<svg xmlns="http://www.w3.org/2000/svg" version="1.1" xmlns:xlink="http://www.w3.org/1999/xlink" width="1000" height="1000"><g clip-path="url(#SvgjsClipPath1106)"><rect width="1000" height="1000" fill="#ffffff"></rect><g transform="matrix(4.102564102564102,0,0,4.102564102564102,188.20512820512823,100.00000000000006)"><svg xmlns="http://www.w3.org/2000/svg" version="1.1" xmlns:xlink="http://www.w3.org/1999/xlink" width="152" height="195"><svg width="152" height="195" viewBox="0 0 152 195" fill="none" xmlns="http://www.w3.org/2000/svg">
<path d="M46.4767 73.4674C31.4822 85.7884 16.7629 97.881 1.28209 110.599C1.28209 93.8652 1.25519 78.2805 1.34511 62.6964C1.35086 61.7013 2.00824 60.3985 2.78923 59.7648C27.0759 40.0598 51.4157 20.4203 75.9167 0.634094C88.8849 11.0244 101.472 21.0879 114.035 31.1816C125.325 40.2531 136.612 49.3296 147.83 58.4895C149.02 59.461 150.54 60.9986 150.556 62.2897C150.743 78.032 150.677 93.7775 150.677 110.514C125.426 89.9015 100.892 69.8742 76.0992 49.6361C66.1737 57.6189 56.4628 65.429 46.4767 73.4674Z" fill="#605ACA"></path>
<path d="M84.2578 78.7603C106.833 97.3969 129.135 115.805 151.867 134.568C143.301 141.48 135.321 147.921 126.928 154.695C126.311 150.8 125.994 147.249 125.158 143.826C122.882 134.502 118.146 126.631 110.608 120.568C99.2054 111.396 87.7839 102.247 75.935 92.7391C62.8516 103.546 49.3977 113.885 36.8932 125.267C28.8932 132.549 26.1382 142.927 25.5041 154.574C16.862 147.726 8.86259 141.386 0.148804 134.48C25.5469 113.546 50.6259 92.8753 76.0884 71.8884C78.7182 74.1008 81.3515 76.3162 84.2578 78.7603Z" fill="#605ACA"></path>
<path d="M85.6418 187.621C82.3213 190.143 79.2794 192.442 76.0693 194.868C66.779 187.628 57.3149 180.818 48.5158 173.237C39.6392 165.589 41.2795 144.819 50.9428 135.451C51.5406 134.871 52.1455 134.295 52.7883 133.767C60.3822 127.534 67.9839 121.31 76.2546 114.533C85.3707 122.474 94.9389 130.16 103.728 138.652C111.999 146.645 111.547 170.849 98.9979 177.401C94.2054 179.903 90.2548 184.018 85.6418 187.621ZM89.0489 149.88C85.2763 142.836 79.5223 139.878 72.8672 141.563C66.6139 143.146 62.0649 148.618 62.0386 154.798C62.013 160.829 64.7364 165.361 70.1393 168.006C75.1527 170.46 80.2526 170.206 84.6577 166.694C89.8612 162.546 91.2898 157.01 89.0489 149.88Z" fill="#605ACA"></path>
</svg></svg></g></g><defs><clipPath id="SvgjsClipPath1106"><rect width="1000" height="1000" x="0" y="0" rx="200" ry="200"></rect></clipPath></defs></svg>