<svg width="657" height="195" viewBox="0 0 657 195" fill="none" xmlns="http://www.w3.org/2000/svg">
<path d="M46.4767 73.4674C31.4822 85.7884 16.763 97.881 1.28212 110.599C1.28212 93.8652 1.25522 78.2805 1.34514 62.6964C1.35089 61.7013 2.00827 60.3985 2.78926 59.7648C27.0759 40.0598 51.4157 20.4203 75.9167 0.634094C88.8849 11.0244 101.472 21.0879 114.035 31.1816C125.325 40.2531 136.612 49.3296 147.83 58.4895C149.02 59.461 150.54 60.9986 150.556 62.2897C150.743 78.032 150.677 93.7775 150.677 110.514C125.426 89.9015 100.892 69.8742 76.0993 49.6361C66.1737 57.6189 56.4628 65.429 46.4767 73.4674Z" fill="#605ACA"/>
<path d="M84.2578 78.7603C106.833 97.3969 129.135 115.805 151.867 134.568C143.301 141.48 135.321 147.921 126.928 154.695C126.311 150.8 125.994 147.249 125.158 143.826C122.882 134.502 118.146 126.631 110.608 120.568C99.2054 111.396 87.7839 102.247 75.9351 92.7391C62.8516 103.546 49.3977 113.885 36.8933 125.267C28.8932 132.549 26.1382 142.927 25.5041 154.574C16.862 147.726 8.86261 141.386 0.148819 134.48C25.547 113.546 50.6259 92.8753 76.0884 71.8884C78.7182 74.1008 81.3515 76.3162 84.2578 78.7603Z" fill="#605ACA"/>
<path d="M85.6418 187.621C82.3213 190.143 79.2794 192.442 76.0693 194.868C66.7791 187.628 57.3149 180.818 48.5159 173.237C39.6393 165.589 41.2795 144.819 50.9429 135.451C51.5406 134.871 52.1455 134.295 52.7883 133.767C60.3822 127.534 67.9839 121.31 76.2547 114.533C85.3707 122.474 94.939 130.16 103.728 138.652C111.999 146.645 111.547 170.849 98.9979 177.401C94.2054 179.903 90.2548 184.018 85.6418 187.621ZM89.0489 149.88C85.2764 142.836 79.5223 139.878 72.8672 141.563C66.6139 143.146 62.0649 148.618 62.0387 154.798C62.0131 160.829 64.7365 165.361 70.1393 168.006C75.1527 170.46 80.2526 170.206 84.6578 166.694C89.8612 162.546 91.2898 157.01 89.0489 149.88Z" fill="#605ACA"/>
<path d="M392.234 124.278C379.127 132.573 368.626 131.951 354.827 122.025C354.827 124.341 354.827 126.382 354.827 128.713C351.012 128.713 347.586 128.713 343.822 128.713C343.822 101.854 343.822 74.95 343.822 47.702C347.49 47.702 351.072 47.702 355.189 47.702C355.189 57.4521 355.189 67.3523 355.189 78.578C363.568 70.5332 372.469 68.2906 382.533 70.8546C389.281 72.574 394.619 76.313 398.48 82.0712C407.353 95.3055 404.722 113.644 392.234 124.278ZM356.351 91.2379C355.972 92.339 355.499 93.4177 355.226 94.5448C352.535 105.671 358.054 116.45 367.731 119.031C377.691 121.688 387.355 116.751 390.711 107.291C394.225 97.3854 390.064 86.1718 381.334 82.0154C372.098 77.6187 362.304 81.0206 356.351 91.2379Z" fill="black"/>
<path d="M617.096 72.0284C640.144 64.4091 659.756 80.3722 655.871 103.64C641.017 103.64 626.087 103.64 610.652 103.64C611.313 110.399 614.509 114.952 620.062 117.514C629.826 122.018 638.817 120.232 647.062 112.934C649.076 115.168 651.026 117.332 652.944 119.461C645.787 128.557 632.224 132.06 619.553 128.267C607.94 124.79 599.976 115.084 599.03 103.255C597.881 88.8698 603.783 78.4888 617.096 72.0284ZM612.114 96.039C623.255 96.039 634.396 96.039 645.567 96.039C644.612 85.6816 638.957 79.9753 629.438 79.4425C619.867 78.9068 612.194 84.6272 610.548 93.6325C610.416 94.3515 610.997 95.2007 612.114 96.039Z" fill="black"/>
<path d="M201.572 106.705C204.924 98.9764 211.249 96.3857 218.572 95.9892C225.536 95.6122 232.537 95.9081 239.376 95.9081C242.067 87.3071 237.868 80.911 229.3 79.9908C221.554 79.1589 214.516 81.3241 207.617 85.6482C206.104 82.9318 204.685 80.3833 203.279 77.8573C211.998 69.3115 233.646 67.2723 243.477 73.9533C248.704 77.5059 250.955 82.6931 251.733 88.6874C251.968 90.4941 251.942 92.3415 251.945 94.1704C251.962 105.611 251.953 117.052 251.953 128.728C248.18 128.728 244.916 128.728 241.253 128.728C241.085 126.89 240.913 125.011 240.686 122.523C233.214 128.954 224.899 131.179 215.616 129.155C204.105 126.645 199.072 118.752 201.572 106.705ZM212.612 114.604C216.143 120.823 222.931 122.704 231.345 119.795C238.615 117.282 241.213 112.148 239.731 103.231C233.765 103.231 227.78 102.931 221.838 103.308C214.742 103.758 212.045 107.043 212.612 114.604Z" fill="black"/>
<path d="M473.439 99.1158C472.554 116.403 463.099 127.095 446.998 129.466C432.405 131.615 418.597 123.804 413.959 110.36C409.878 98.5328 411.621 87.4277 420.664 78.5335C430.251 69.1032 442.15 67.4351 454.445 71.9617C466.528 76.4104 472.745 85.7609 473.439 99.1158ZM443.4 119.78C444.547 119.601 445.708 119.486 446.838 119.231C457.45 116.842 463.184 106.93 460.946 94.8841C459.108 84.9946 450.245 78.6569 440.063 79.9507C430.238 81.1989 423.595 89.6209 423.815 100.547C424.037 111.555 430.913 118.606 443.4 119.78Z" fill="black"/>
<path d="M530.778 76.3146C530.777 74.2158 530.777 72.5788 530.777 70.7055C534.546 70.7055 537.95 70.7055 541.6 70.7055C541.791 73.1624 541.967 75.4253 542.222 78.7096C548.729 71.9812 556.162 69.1776 564.915 69.8487C576.91 70.7686 585.151 78.0266 585.746 89.9765C586.381 102.729 585.889 115.537 585.889 128.609C582.048 128.609 578.46 128.609 574.219 128.609C574.219 120.887 574.222 113.124 574.218 105.361C574.216 101.864 574.322 98.363 574.167 94.8733C573.777 86.054 569.074 80.887 560.956 80.1741C552.043 79.3913 544.496 84.2647 543.044 92.5019C542.188 97.3605 542.458 102.432 542.384 107.41C542.285 114.068 542.348 120.729 542.322 127.388C542.321 127.698 542.128 128.007 541.929 128.604C538.465 128.604 534.905 128.604 530.78 128.604C530.78 111.331 530.78 94.0535 530.778 76.3146Z" fill="black"/>
<path d="M313.806 77.1948C318.807 71.8695 324.71 69.7958 331.842 69.9336C331.842 73.4448 331.842 76.8414 331.842 80.2795C331.608 80.4177 331.347 80.7007 331.072 80.7151C316.988 81.4505 311.704 86.7223 311.41 100.799C311.216 110.081 311.373 119.371 311.373 128.82C307.373 128.82 303.903 128.82 300.097 128.82C300.097 109.48 300.097 90.1459 300.097 70.6052C303.622 70.6052 307.041 70.6052 310.93 70.6052C310.93 73.518 310.93 76.2449 310.93 78.9718C311.497 79.3838 312.063 79.7958 312.63 80.2078C312.938 79.3039 313.246 78.4001 313.806 77.1948Z" fill="black"/>
<path d="M507.294 72.1283C511.153 71.1177 514.659 70.2513 518.677 69.2583C518.677 73.3757 518.677 76.7516 518.677 80.1367C518.397 80.3135 518.135 80.6186 517.856 80.6345C503.501 81.4523 498.387 86.7737 498.242 101.275C498.152 110.25 498.225 119.227 498.225 128.542C494.461 128.542 490.902 128.542 487.033 128.542C487.033 109.436 487.033 90.2066 487.033 70.6469C490.48 70.6469 493.875 70.6469 497.779 70.6469C497.923 73.4033 498.071 76.2484 498.228 79.2571C501.371 76.7375 504.155 74.505 507.294 72.1283Z" fill="black"/>
<path d="M269.837 93C269.836 85.3686 269.836 78.2372 269.836 70.9072C273.646 70.9072 277.097 70.9072 280.871 70.9072C280.871 90.1148 280.871 109.265 280.871 128.666C277.281 128.666 273.866 128.666 269.837 128.666C269.837 116.949 269.837 105.225 269.837 93Z" fill="black"/>
<path d="M269.365 57.6597C265.337 50.791 267.73 44.5066 274.338 43.8395C278.552 43.4141 282.523 44.9522 283.499 49.0096C284.146 51.6962 283.135 55.8288 281.274 57.8403C278.022 61.3541 273.561 61.1837 269.365 57.6597Z" fill="#605ACA"/>
</svg>
